<?xml version="1.0" encoding="UTF-8" standalone="no"?>
<svg
   xmlns:dc="http://purl.org/dc/elements/1.1/"
   xmlns:cc="http://creativecommons.org/ns#"
   xmlns:rdf="http://www.w3.org/1999/02/22-rdf-syntax-ns#"
   xmlns:svg="http://www.w3.org/2000/svg"
   xmlns="http://www.w3.org/2000/svg"
   xmlns:sodipodi="http://sodipodi.sourceforge.net/DTD/sodipodi-0.dtd"
   xmlns:inkscape="http://www.inkscape.org/namespaces/inkscape"
   viewBox="0 0 120 16.97"
   version="1.1"
   id="svg32177"
   sodipodi:docname="Asset 1.svg"
   inkscape:version="0.92.4 (5da689c313, 2019-01-14)">
  <metadata
     id="metadata32181">
    <rdf:RDF>
      <cc:Work
         rdf:about="">
        <dc:format>image/svg+xml</dc:format>
        <dc:type
           rdf:resource="http://purl.org/dc/dcmitype/StillImage" />
        <dc:title>Asset 1</dc:title>
      </cc:Work>
    </rdf:RDF>
  </metadata>
  <sodipodi:namedview
     pagecolor="#ffffff"
     bordercolor="#666666"
     borderopacity="1"
     objecttolerance="10"
     gridtolerance="10"
     guidetolerance="10"
     inkscape:pageopacity="0"
     inkscape:pageshadow="2"
     inkscape:window-width="1920"
     inkscape:window-height="1001"
     id="namedview32179"
     showgrid="false"
     inkscape:zoom="14.666667"
     inkscape:cx="60"
     inkscape:cy="8.4849997"
     inkscape:window-x="-9"
     inkscape:window-y="-9"
     inkscape:window-maximized="1"
     inkscape:current-layer="svg32177" />
  <defs
     id="defs32145">
    <style
       id="style32143">.cls-1{fill:#d51f35;}</style>
  </defs>
  <title
     id="title32147">Asset 1</title>
  <g
     id="Layer_2"
     data-name="Layer 2">
    <g
       id="Layer_1-2"
       data-name="Layer 1">
      <path
         class="cls-1"
         d="M21.1,0,17.27,5.21H38.16c1.06,0,1.05.4.53,1.1S37.29,8.25,36.75,9c-.27.36-.76,1,.87,1h8.54l2.53-3.44C50.26,4.43,48.83,0,43.22,0H21.1"
         id="path32149" />
      <path
         class="cls-1"
         d="M15.72,17l7.7-10.46H33c1.06,0,1.05.4.53,1.1s-1.41,1.93-1.95,2.65c-.27.37-.76,1,.86,1H45.22A13.31,13.31,0,0,1,34.5,17H15.72"
         id="path32151" />
      <polyline
         class="cls-1"
         points="59.82 11.29 55.64 16.97 44.63 16.97 48.81 11.29 59.82 11.29"
         id="polyline32153" />
      <polyline
         class="cls-1"
         points="76.69 10.01 49.75 10.01 57.12 0 68.13 0 63.91 5.74 68.83 5.74 73.05 0 84.06 0 76.69 10.01"
         id="polyline32155" />
      <polyline
         class="cls-1"
         points="75.75 11.29 71.57 16.97 60.56 16.97 64.74 11.29 75.75 11.29"
         id="polyline32157" />
      <polyline
         class="cls-1"
         points="0 13.53 16.23 13.53 15.34 14.74 0 14.74 0 13.53"
         id="polyline32159" />
      <polyline
         class="cls-1"
         points="0 11.29 17.88 11.29 16.99 12.5 0 12.5 0 11.29"
         id="polyline32161" />
      <polyline
         class="cls-1"
         points="0 15.77 14.58 15.77 13.7 16.97 0 16.97 0 15.77"
         id="polyline32163" />
      <polyline
         class="cls-1"
         points="120 14.74 103.83 14.74 104.72 13.53 120 13.53 120 14.74"
         id="polyline32165" />
      <polyline
         class="cls-1"
         points="120 16.97 102.19 16.97 103.07 15.77 120 15.77 120 16.97"
         id="polyline32167" />
      <polyline
         class="cls-1"
         points="106.37 11.29 120 11.29 120 12.5 105.48 12.5 106.37 11.29"
         id="polyline32169" />
      <polyline
         class="cls-1"
         points="99.31 0 91.94 10.01 80.28 10.01 87.65 0 99.31 0"
         id="polyline32171" />
      <path
         class="cls-1"
         d="M79.33,11.29l-1.19,1.63c-1.39,1.87-.17,4,4.35,4h17.68l4.18-5.68h-25"
         id="path32173" />
    </g>
  </g>
</svg>
