<?xml version="1.0" encoding="utf-8"?>
<!-- Generator: Adobe Illustrator 19.2.1, SVG Export Plug-In . SVG Version: 6.00 Build 0)  -->
<svg version="1.1" id="layer" xmlns="http://www.w3.org/2000/svg" xmlns:xlink="http://www.w3.org/1999/xlink" x="0px" y="0px"
	 viewBox="0 0 652 652" style="enable-background:new 0 0 652 652;" xml:space="preserve">
<style type="text/css">
	.st0{fill:#1D4092;}
</style>
<g>
	<path class="st0" d="M257,343.4c0,13.9-3.2,24.2-9.4,31.3c-6.1,7.1-13.8,10.7-23.2,10.7c-10,0-18.2-3.3-24.6-9.8
		c-6.3-6.7-9.4-15.2-9.4-25.8c0-10.7,3.1-19.1,9.2-25.5c6.1-6.4,14.2-9.6,24.4-9.6c4,0,8.3,0.9,13.1,2.8c4.9,1.7,9.2,3.9,12.8,6.3
		l1.9,1.3v-23.4l-0.6-0.3c-9.1-5-19.2-7.5-30.5-7.5c-14.2,0-26.5,5.2-36.8,15.6c-10.1,10.3-15.2,22.9-15.2,37.9
		c0,16.5,4.9,30.3,14.7,41.4c10.4,11.6,24.1,17.5,41,17.5c16,0,29.1-5.4,39.2-16.3c10.3-11,15.4-25.4,15.4-42.9v-99.6H257V343.4z
		 M26.8,404h23V247.4h-23V404z M109.1,293.9c-13.4,0-24.5,4.4-33.2,13.2c-8.7,8.8-13,20.2-13,34.1V404h21.7v-62.8
		c0-7.7,2.4-14,7.2-18.9c5-5.1,10.7-7.6,17.3-7.6c6.9,0,12.6,2.5,17.3,7.6c4.8,4.9,7.2,11.2,7.2,18.9V404h21.9v-62.8
		c0-13.9-4.4-25.3-13.2-34.1C133.5,298.3,122.4,293.9,109.1,293.9 M293.9,404h21.9V296.1h-21.9V404z M613.9,292h2.3v6h0.9v-6h2.3
		v-0.8h-5.6V292z M625.5,291.2l-2,5.8h0l-2-5.8h-1.3v6.9h0.9v-4c0-0.2,0-1.1,0-1.7h0l1.9,5.8h0.9l1.9-5.8h0c0,0.6,0,1.5,0,1.7v4h0.9
		v-6.9H625.5z M561.1,293.9c-15.4,0-28.6,5.4-39.6,16.1c-10.9,10.6-16.3,24-16.3,40.1c0,16.3,5.5,29.7,16.6,40.3
		c11,10.6,24.2,15.8,39.4,15.8c15.4,0,28.6-5.3,39.6-15.8c11-10.6,16.5-24.1,16.5-40.3c0-16.1-5.6-29.5-16.8-40.1
		C589.5,299.3,576.4,293.9,561.1,293.9 M585.1,375.6c-6.2,6.5-14.2,9.8-23.9,9.8s-17.7-3.3-23.9-9.8c-6.2-6.5-9.4-15-9.4-25.5
		c0-10.7,3.1-19.2,9.2-25.5c6.3-6.5,14.3-9.8,24.2-9.8c9.7,0,17.7,3.3,23.9,9.8c6.3,6.5,9.4,15,9.4,25.5
		C594.5,360.6,591.3,369.1,585.1,375.6 M304.9,260.7c-3.9,0-7.2,1.2-9.5,3.7c-2.3,2.5-3.4,5.5-3.4,9c0,3.5,1.2,6.7,3.4,9.3
		c2.5,2.5,5.7,3.7,9.5,3.7c4.1,0,7.3-1.2,9.6-3.7c2.3-2.5,3.4-5.6,3.4-9.2c0-3.4-1.2-6.4-3.7-8.8C311.9,262,308.7,260.7,304.9,260.7
		 M414.2,336.7H468c-0.3,14.3-5.9,26-16.8,35.1c-10.5,8.8-23.4,13.2-38.7,13.2c-16.5,0-30.2-5.8-41.2-17.3
		c-11-11.6-16.5-25.5-16.5-41.7c0-16.4,5.5-30.3,16.5-41.9c11-11.6,24.7-17.3,41.2-17.3c9.5,0,18.3,2.1,26.2,6.3
		c5.3,2.9,12.9,8.4,22.8,16.7l0.9,0.7l15.5-16.8l-0.8-0.8c-10.1-10.1-20.1-17.3-30.1-21.5c-9.9-4.4-21.5-6.5-34.6-6.5
		c-22.2,0-41.4,8-57.6,23.8c-16,15.7-24.1,34.9-24.1,57.4c0,22.5,8,41.6,24.1,57.4c16.2,15.6,35.4,23.4,57.6,23.4
		c20.7,0,38.7-6.5,54-19.6c17.1-14.6,25.7-33.9,25.7-57.9V315h-78V336.7z"/>
</g>
</svg>
