<?xml version="1.0" encoding="UTF-8" standalone="no"?>
<svg
   xmlns:dc="http://purl.org/dc/elements/1.1/"
   xmlns:cc="http://creativecommons.org/ns#"
   xmlns:rdf="http://www.w3.org/1999/02/22-rdf-syntax-ns#"
   xmlns:svg="http://www.w3.org/2000/svg"
   xmlns="http://www.w3.org/2000/svg"
   xmlns:sodipodi="http://sodipodi.sourceforge.net/DTD/sodipodi-0.dtd"
   xmlns:inkscape="http://www.inkscape.org/namespaces/inkscape"
   viewBox="0 0 95.72 58.03"
   version="1.1"
   id="svg36379"
   sodipodi:docname="Asset 17.svg"
   inkscape:version="0.92.4 (5da689c313, 2019-01-14)">
  <metadata
     id="metadata36383">
    <rdf:RDF>
      <cc:Work
         rdf:about="">
        <dc:format>image/svg+xml</dc:format>
        <dc:type
           rdf:resource="http://purl.org/dc/dcmitype/StillImage" />
        <dc:title>Asset 17</dc:title>
      </cc:Work>
    </rdf:RDF>
  </metadata>
  <sodipodi:namedview
     pagecolor="#ffffff"
     bordercolor="#666666"
     borderopacity="1"
     objecttolerance="10"
     gridtolerance="10"
     guidetolerance="10"
     inkscape:pageopacity="0"
     inkscape:pageshadow="2"
     inkscape:window-width="640"
     inkscape:window-height="480"
     id="namedview36381"
     showgrid="false"
     inkscape:zoom="4.9457178"
     inkscape:cx="47.860001"
     inkscape:cy="29.014999"
     inkscape:window-x="0"
     inkscape:window-y="0"
     inkscape:window-maximized="1"
     inkscape:current-layer="svg36379" />
  <defs
     id="defs36347">
    <style
       id="style36345">.cls-1{fill:#003d71;}.cls-2{fill:#8bc53f;}</style>
  </defs>
  <title
     id="title36349">Asset 17</title>
  <g
     id="Layer_2"
     data-name="Layer 2">
    <g
       id="Layer_1-2"
       data-name="Layer 1">
      <path
         class="cls-1"
         d="M24,31.07a.34.34,0,0,1-.39.39H22.21a.35.35,0,0,1-.4-.39V26.24a.28.28,0,0,1,.11-.21.5.5,0,0,1,.27-.08h5.72a3.49,3.49,0,0,1,1.08.17,2.94,2.94,0,0,1,.88.46,2.26,2.26,0,0,1,.59.69,1.82,1.82,0,0,1,.22.85,1.58,1.58,0,0,1-.22.81,1.84,1.84,0,0,1-.59.62,2.83,2.83,0,0,1-.88.39,3.81,3.81,0,0,1-1.08.14H24Zm0-4.19V29.1h3.4a2.31,2.31,0,0,0,.46-.05,1.18,1.18,0,0,0,.42-.16.84.84,0,0,0,.29-.3.94.94,0,0,0,.1-.47.76.76,0,0,0,0-.21c0-.06,0-.12-.06-.19l0-.08a1.59,1.59,0,0,0-.54-.52,2,2,0,0,0-.84-.25Z"
         id="path36351" />
      <path
         class="cls-1"
         d="M38.46,28.12l.23,0a.23.23,0,0,1,.12.08.5.5,0,0,1,0,.13v.7a.5.5,0,0,1,0,.13.23.23,0,0,1-.12.08.47.47,0,0,1-.23,0H33.54a2.1,2.1,0,0,0,.55.65,1.43,1.43,0,0,0,.83.33h4.92c.17,0,.27,0,.32.12a.5.5,0,0,1,.07.27v.4a.37.37,0,0,1-.1.28.38.38,0,0,1-.29.11H34.15a2.74,2.74,0,0,1-1.08-.21,3,3,0,0,1-.88-.6,2.91,2.91,0,0,1-.59-.87,2.72,2.72,0,0,1-.21-1.07,2.81,2.81,0,0,1,.21-1.08,2.91,2.91,0,0,1,.59-.87,2.78,2.78,0,0,1,.88-.59A2.74,2.74,0,0,1,34.15,26h5.69a.38.38,0,0,1,.29.11.39.39,0,0,1,.1.29v.39a.53.53,0,0,1-.07.28.37.37,0,0,1-.32.11H34.92a1.56,1.56,0,0,0-.84.33,1.68,1.68,0,0,0-.54.66Z"
         id="path36353" />
      <path
         class="cls-1"
         d="M46.46,26.93v4.14a.34.34,0,0,1-.39.39H44.69a.35.35,0,0,1-.4-.39V26.93h-3c-.22,0-.33-.05-.33-.17v-.49a.29.29,0,0,1,.08-.21A.84.84,0,0,1,41.3,26h8.18a.83.83,0,0,1,.25.13.26.26,0,0,1,.08.19v.49c0,.12-.11.17-.33.17Z"
         id="path36355" />
      <path
         class="cls-1"
         d="M59.39,31.07a.34.34,0,0,1-.39.39H57.62a.34.34,0,0,1-.39-.39v-1l-.29,0H52.72v1a.35.35,0,0,1-.4.39H51a.35.35,0,0,1-.4-.39V26.24a.28.28,0,0,1,.11-.21.46.46,0,0,1,.27-.08h5.72a3.38,3.38,0,0,1,1.07.17,3,3,0,0,1,.89.46,2.41,2.41,0,0,1,.59.69,1.81,1.81,0,0,1,.21.85c0,.47-.36.88-1.07,1.23H59a.39.39,0,0,1,.29.09.37.37,0,0,1,.08.26Zm-6.68-4.19V29.1H56.1a2.42,2.42,0,0,0,.47-.05A1.13,1.13,0,0,0,57,28.9a.86.86,0,0,0,.3-.3.93.93,0,0,0,.11-.47.77.77,0,0,0-.1-.4l0-.08a1.76,1.76,0,0,0-1.38-.77Z"
         id="path36357" />
      <path
         class="cls-1"
         d="M62.93,31.46a2.77,2.77,0,0,1-1.08-.21,2.94,2.94,0,0,1-.87-.6,2.73,2.73,0,0,1-.59-.87,2.56,2.56,0,0,1-.22-1.07,2.64,2.64,0,0,1,.22-1.08,2.79,2.79,0,0,1,1.46-1.46A2.78,2.78,0,0,1,62.93,26h3.32a2.82,2.82,0,0,1,1.08.22,2.78,2.78,0,0,1,.88.59,2.91,2.91,0,0,1,.59.87A2.81,2.81,0,0,1,69,28.71a2.72,2.72,0,0,1-.21,1.07,2.91,2.91,0,0,1-.59.87,3,3,0,0,1-.88.6,2.81,2.81,0,0,1-1.08.21ZM67,28.73a1.24,1.24,0,0,0,0-.27,2.33,2.33,0,0,1-.07-.25l0-.09a2.12,2.12,0,0,0-.54-.66,1.56,1.56,0,0,0-.84-.33H63.7a1.56,1.56,0,0,0-.84.33,1.74,1.74,0,0,0-.53.66l0,.09a1.11,1.11,0,0,0-.07.26,1.15,1.15,0,0,0,0,.26,1.48,1.48,0,0,0,.56,1.17,1.62,1.62,0,0,0,.57.29,2,2,0,0,0,.64.1h1.26a2.25,2.25,0,0,0,.64-.09,1.75,1.75,0,0,0,.56-.29A1.53,1.53,0,0,0,67,28.73Z"
         id="path36359" />
      <path
         class="cls-1"
         d="M31.32,39.45l-2.23,2.7c-.34.4-.64.6-.92.6a.85.85,0,0,1-.51-.15,2.12,2.12,0,0,1-.47-.45L25,39.45l-2-2.56v5.26q0,.6-.21.6H22c-.14,0-.22-.2-.22-.6V34.49c0-.1.07-.15.19-.15h1.4q.36,0,.87.6l3.9,5.11L32,34.94c.36-.4.65-.6.89-.6h3c.12,0,.18.06.18.16v7.65c0,.4-.07.6-.22.6H33.52c-.14,0-.22-.2-.22-.6V36.89Z"
         id="path36361" />
      <path
         class="cls-1"
         d="M46.59,41.25H39.78l-.62.9a1.25,1.25,0,0,1-1,.6h-.55a.63.63,0,0,1-.28,0,.19.19,0,0,1-.07-.17.74.74,0,0,1,.18-.38l5.13-7.21a1.27,1.27,0,0,1,1.05-.6h.78a1.35,1.35,0,0,1,1,.6l5.13,7.21a.65.65,0,0,1,.14.23,1.54,1.54,0,0,1,0,.17c0,.13-.12.2-.36.2h-2.1a1.05,1.05,0,0,1-.57-.15,1.76,1.76,0,0,1-.46-.45Zm-5.53-1.79h4.27l-2.14-3Z"
         id="path36363" />
      <path
         class="cls-1"
         d="M55,36.72a.73.73,0,0,0,.21.58,1.17,1.17,0,0,0,.56.26,3.57,3.57,0,0,0,.76.07l.81,0h3.85a5.11,5.11,0,0,1,1.63.25,5,5,0,0,1,1.34.64,3.32,3.32,0,0,1,.9.89,1.71,1.71,0,0,1,.33,1,1.44,1.44,0,0,1-.33.91,2.93,2.93,0,0,1-.9.74,4.92,4.92,0,0,1-1.34.51,6.56,6.56,0,0,1-1.63.19H52.46a.61.61,0,0,1-.46-.16.45.45,0,0,1-.15-.31v-.73a.25.25,0,0,1,.1-.22.93.93,0,0,1,.5-.08h8.26l.53,0a2.28,2.28,0,0,0,.5-.13,1.12,1.12,0,0,0,.37-.26.64.64,0,0,0,.14-.42.61.61,0,0,0,0-.24.72.72,0,0,0-.09-.2l-.06-.09a1.26,1.26,0,0,0-.83-.37L60,39.45H56.08a5.48,5.48,0,0,1-1.65-.25,5,5,0,0,1-1.34-.63,3.32,3.32,0,0,1-.9-.89,1.77,1.77,0,0,1-.33-1,1.43,1.43,0,0,1,.33-.9,2.82,2.82,0,0,1,.9-.75,4.92,4.92,0,0,1,1.34-.51,7.18,7.18,0,0,1,1.65-.19h8.74a.53.53,0,0,1,.39.15.48.48,0,0,1,.14.31v.44a1.5,1.5,0,0,1,0,.35.36.36,0,0,1-.12.18.4.4,0,0,1-.21.07H57.25l-.65,0a5.8,5.8,0,0,0-.6,0,2.35,2.35,0,0,0-.5.09.75.75,0,0,0-.37.23l0,.07a1.47,1.47,0,0,0-.1.22A.59.59,0,0,0,55,36.72Z"
         id="path36365" />
      <path
         class="cls-1"
         d="M69.84,34.94v7.21a.53.53,0,0,1-.6.6h-2.1a.53.53,0,0,1-.6-.6V34.94a.53.53,0,0,1,.6-.6h2.1A.53.53,0,0,1,69.84,34.94Z"
         id="path36367" />
      <path
         class="cls-1"
         d="M74.31,38.7A2.17,2.17,0,0,0,76.43,41H80.6c.26,0,.42.06.49.17a.86.86,0,0,1,.11.43v.6a.59.59,0,0,1-.15.43.58.58,0,0,1-.45.17H75.27a4.2,4.2,0,0,1-1.66-.33,4.19,4.19,0,0,1-2.24-2.24A4.06,4.06,0,0,1,71,38.55l0-3.61a.53.53,0,0,1,.6-.6h2.11c.39,0,.58.2.58.6Z"
         id="path36369" />
      <path
         class="cls-1"
         d="M91.58,41.25H84.77l-.62.9a1.25,1.25,0,0,1-1,.6h-.55a.63.63,0,0,1-.28,0,.2.2,0,0,1-.08-.17.77.77,0,0,1,.19-.38l5.13-7.21a1.27,1.27,0,0,1,1-.6h.78a1.35,1.35,0,0,1,1,.6l5.14,7.21a.78.78,0,0,1,.13.23.64.64,0,0,1,0,.17c0,.13-.12.2-.36.2h-2.1a1.05,1.05,0,0,1-.57-.15,1.76,1.76,0,0,1-.46-.45Zm-5.53-1.79h4.27l-2.15-3Z"
         id="path36371" />
      <path
         class="cls-1"
         d="M92.6,34a.91.91,0,0,1-.41-.08,1.07,1.07,0,0,1-.35-.23,1.36,1.36,0,0,1-.23-.34,1,1,0,0,1-.08-.42,1,1,0,0,1,.08-.41,1.36,1.36,0,0,1,.23-.34,1.07,1.07,0,0,1,.35-.23.91.91,0,0,1,.41-.08A1,1,0,0,1,93,32a1.08,1.08,0,0,1,.57.57,1,1,0,0,1,.09.41,1,1,0,0,1-.09.42,1,1,0,0,1-.23.34,1.13,1.13,0,0,1-.34.23A1,1,0,0,1,92.6,34Zm0-.2a.88.88,0,0,0,.61-.25.84.84,0,0,0,.18-.28.8.8,0,0,0,.07-.34.72.72,0,0,0-.07-.33.78.78,0,0,0-.46-.46.81.81,0,0,0-.66,0,.75.75,0,0,0-.28.18.92.92,0,0,0-.19.28.88.88,0,0,0-.07.33.8.8,0,0,0,.07.34,1,1,0,0,0,.18.28.75.75,0,0,0,.28.18A.77.77,0,0,0,92.6,33.81Zm.56-1.14a.33.33,0,0,1-.33.36l.35.53h-.26L92.6,33h-.21v.53h-.21V32.33h.54C93,32.33,93.16,32.44,93.16,32.67Zm-.77-.17v.34h.37a.16.16,0,0,0,.11,0,.1.1,0,0,0,.06,0,.19.19,0,0,0,0-.08c0-.11-.08-.17-.26-.17Z"
         id="path36373" />
      <path
         class="cls-2"
         d="M41,44.26a19.65,19.65,0,0,1-7.19,9.81,20.74,20.74,0,0,1-11.91,4A21.58,21.58,0,0,1,9.56,54.35a22.25,22.25,0,0,1-8.1-10.18A22.52,22.52,0,0,1,0,37.7a26.68,26.68,0,0,1,.44-6.52A38.11,38.11,0,0,1,5,19.34a60.86,60.86,0,0,1,7.34-10,68.87,68.87,0,0,1,9-8.49l1-.81.92.81a55.92,55.92,0,0,1,5,5,65.6,65.6,0,0,1,4.42,5.44A49.86,49.86,0,0,1,39.4,23.41a59.81,59.81,0,0,0-3.81-5.72c-1.39-1.82-2.82-3.57-4.36-5.25s-3.12-3.31-4.77-4.85C25.14,6.37,23.77,5.16,22.4,4c-.4.26-10,10.58-13.77,17.32a36.66,36.66,0,0,0-4,10.6,20.21,20.21,0,0,0,.64,10.79A18.89,18.89,0,0,0,21.91,55.2a19.47,19.47,0,0,0,11-2.54A20.88,20.88,0,0,0,41,44.26Z"
         id="path36375" />
    </g>
  </g>
</svg>
