<?xml version="1.0" encoding="UTF-8" standalone="no"?>
<svg
   xmlns:dc="http://purl.org/dc/elements/1.1/"
   xmlns:cc="http://creativecommons.org/ns#"
   xmlns:rdf="http://www.w3.org/1999/02/22-rdf-syntax-ns#"
   xmlns:svg="http://www.w3.org/2000/svg"
   xmlns="http://www.w3.org/2000/svg"
   xmlns:sodipodi="http://sodipodi.sourceforge.net/DTD/sodipodi-0.dtd"
   xmlns:inkscape="http://www.inkscape.org/namespaces/inkscape"
   viewBox="0 0 120 33.33"
   version="1.1"
   id="svg36237"
   sodipodi:docname="Asset 16.svg"
   inkscape:version="0.92.4 (5da689c313, 2019-01-14)">
  <metadata
     id="metadata36241">
    <rdf:RDF>
      <cc:Work
         rdf:about="">
        <dc:format>image/svg+xml</dc:format>
        <dc:type
           rdf:resource="http://purl.org/dc/dcmitype/StillImage" />
        <dc:title>Asset 16</dc:title>
      </cc:Work>
    </rdf:RDF>
  </metadata>
  <sodipodi:namedview
     pagecolor="#ffffff"
     bordercolor="#666666"
     borderopacity="1"
     objecttolerance="10"
     gridtolerance="10"
     guidetolerance="10"
     inkscape:pageopacity="0"
     inkscape:pageshadow="2"
     inkscape:window-width="640"
     inkscape:window-height="480"
     id="namedview36239"
     showgrid="false"
     inkscape:zoom="4.65"
     inkscape:cx="60"
     inkscape:cy="16.665001"
     inkscape:window-x="0"
     inkscape:window-y="0"
     inkscape:window-maximized="1"
     inkscape:current-layer="svg36237" />
  <defs
     id="defs36175">
    <style
       id="style36173">.cls-1{fill:#9f2842;}.cls-2{fill:#b78b1e;}</style>
  </defs>
  <title
     id="title36177">Asset 16</title>
  <g
     id="Layer_2"
     data-name="Layer 2">
    <g
       id="Layer_1-2"
       data-name="Layer 1">
      <path
         class="cls-1"
         d="M12,0A14.26,14.26,0,0,0,1.23,4.84a13,13,0,1,1,0,19A14.31,14.31,0,1,0,12,0"
         id="path36179" />
      <path
         class="cls-1"
         d="M.41,30.68a18.7,18.7,0,0,1,11.55-2c6.1,1.14,11.63,3.53,15.17,2.92-2.43,1.07-6.31,3.06-15.88.3C3.43,29.67.41,30.68.41,30.68"
         id="path36181" />
      <path
         class="cls-2"
         d="M13.24,21.4A8.18,8.18,0,1,1,11.67,5.9a8.85,8.85,0,1,0,4.6,13.24,8.18,8.18,0,0,1-3,2.26"
         id="path36183" />
      <path
         class="cls-1"
         d="M34.35,11.36a2.73,2.73,0,0,0,1,.68,3.85,3.85,0,0,0,1.53.26H53.77V6.46H52.32v4.4H39.56v-2a3.58,3.58,0,0,0-.2-1.19,2.8,2.8,0,0,0-.57-.93,2.62,2.62,0,0,0-.89-.61,3.09,3.09,0,0,0-2.42.06,3.25,3.25,0,0,0-1,.75,3.7,3.7,0,0,0-.88,2.44,3.18,3.18,0,0,0,.17,1.06A2.29,2.29,0,0,0,34.35,11.36Zm2.27-4.08a1.28,1.28,0,0,1,1.11.52,2.5,2.5,0,0,1,.39,1.5v1.56H36.85a2.39,2.39,0,0,1-.71-.1,1.45,1.45,0,0,1-1-.85A2.09,2.09,0,0,1,35,9.08a1.75,1.75,0,0,1,.5-1.31A1.52,1.52,0,0,1,36,7.41,1.45,1.45,0,0,1,36.62,7.28Z"
         id="path36185" />
      <path
         class="cls-1"
         d="M35.5,4.6a.76.76,0,0,0,.57-.24.78.78,0,0,0,.24-.57.76.76,0,0,0-.24-.57.8.8,0,0,0-1.14,0,.76.76,0,0,0-.24.57.78.78,0,0,0,.24.57A.76.76,0,0,0,35.5,4.6Z"
         id="path36187" />
      <path
         class="cls-1"
         d="M37.79,4.6a.82.82,0,0,0,.81-.81.76.76,0,0,0-.24-.57.8.8,0,0,0-1.14,0,.76.76,0,0,0-.24.57.82.82,0,0,0,.81.81Z"
         id="path36189" />
      <path
         class="cls-1"
         d="M68.28,4.6a.82.82,0,0,0,.81-.81.76.76,0,0,0-.24-.57.81.81,0,0,0-1.15,0,.79.79,0,0,0-.23.57.81.81,0,0,0,.23.57A.8.8,0,0,0,68.28,4.6Z"
         id="path36191" />
      <path
         class="cls-1"
         d="M75.55,12.3V1.51H74.11v9.35H72.38a1.2,1.2,0,0,1-.66-.17,1.28,1.28,0,0,1-.42-.47A3.1,3.1,0,0,1,71,9.49a7.78,7.78,0,0,1-.13-.9,4.43,4.43,0,0,0-.17-.94,2.6,2.6,0,0,0-.44-.88,2.21,2.21,0,0,0-.79-.65,2.89,2.89,0,0,0-1.8-.22c-.2,0-.4.06-.6.11a5.47,5.47,0,0,0-.55.13l-.44.13L66,6.32l.37,1.41.14-.06a6.08,6.08,0,0,1,.79-.25A3.43,3.43,0,0,1,68,7.33a1.39,1.39,0,0,1,1,.34,2,2,0,0,1,.48,1.25,7.49,7.49,0,0,0,.27,1.36,3.49,3.49,0,0,0,.24.58H65.24a2,2,0,0,1-.74-.12,1.25,1.25,0,0,1-.47-.33,1.38,1.38,0,0,1-.25-.5,2.69,2.69,0,0,1-.08-.65V6.46H62.26V9.88a1.51,1.51,0,0,1-.16.74.65.65,0,0,1-.6.24H60.14a2,2,0,0,1-.76-.12,1.25,1.25,0,0,1-.47-.33,1.31,1.31,0,0,1-.25-.5,2.82,2.82,0,0,1-.08-.65V6.46H57.14v5.63a3,3,0,0,1-.28,1.45,1.13,1.13,0,0,1-1,.43h-.29a1.43,1.43,0,0,1-.29,0l-.48-.08-.16,1.42.12,0,.46.06c.21,0,.42,0,.64,0A2.73,2.73,0,0,0,57,15.14a2.56,2.56,0,0,0,.87-.68,2.87,2.87,0,0,0,.53-1,4,4,0,0,0,.18-1.22v-.55l.08.1a2,2,0,0,0,.48.35,1.7,1.7,0,0,0,.52.15l.52,0h1.4a3.37,3.37,0,0,0,.58,0,2,2,0,0,0,.54-.17,1.54,1.54,0,0,0,.47-.38,1.83,1.83,0,0,0,.23-.34A1.48,1.48,0,0,0,64,12a2.5,2.5,0,0,0,1.2.27h4a1.4,1.4,0,0,0,.65-.17,1.77,1.77,0,0,0,.55-.59,2.08,2.08,0,0,0,.75.55,2.65,2.65,0,0,0,1.13.21Z"
         id="path36193" />
      <rect
         class="cls-1"
         x="77.61"
         y="1.51"
         width="1.4"
         height="10.79"
         id="rect36195" />
      <path
         class="cls-1"
         d="M108.3,12.3a2.14,2.14,0,0,0,1.1-.3,2,2,0,0,0,.68-.65,1.49,1.49,0,0,0,.7.72,2.93,2.93,0,0,0,1.07.21l.11,0h7.56V8.75a3.57,3.57,0,0,0-.19-1.16,2.5,2.5,0,0,0-.54-.91,2.53,2.53,0,0,0-.87-.59,2.78,2.78,0,0,0-1.11-.21,3.27,3.27,0,0,0-2.37,1,2.94,2.94,0,0,0-.68,1,3.12,3.12,0,0,0-.24,1.19,3.07,3.07,0,0,0,.22,1.16,3.07,3.07,0,0,0,.36.6H112a2.14,2.14,0,0,1-1.22-.27,1,1,0,0,1-.37-.91,4.68,4.68,0,0,0-.23-1.53,3.82,3.82,0,0,0-.68-1.26A3.28,3.28,0,0,0,108.44,6a3.4,3.4,0,0,0-1.46-.3,4.11,4.11,0,0,0-1.06.14,3.57,3.57,0,0,0-1,.49,4.53,4.53,0,0,0-1,.9,6.18,6.18,0,0,0-.64.92V1.51h-1.4v9.35H87.64a2,2,0,0,1-.76-.12,1.21,1.21,0,0,1-.46-.33,1.33,1.33,0,0,1-.26-.5,2.82,2.82,0,0,1-.08-.65V6.46H84.64v5.63a2.88,2.88,0,0,1-.28,1.45,1.1,1.1,0,0,1-1,.43H83a1.29,1.29,0,0,1-.29,0l-.48-.08-.16,1.42.12,0,.46.06c.2,0,.42,0,.64,0a2.55,2.55,0,0,0,2-.92,3,3,0,0,0,.53-1,4.33,4.33,0,0,0,.17-1.22v-.55l.09.1a2,2,0,0,0,.47.35,1.76,1.76,0,0,0,.53.15l.51,0Zm0-1.44h-5a4.39,4.39,0,0,1,.33-1.28,4.44,4.44,0,0,1,.78-1.23,3.92,3.92,0,0,1,1.1-.85,2.81,2.81,0,0,1,1.3-.32,2,2,0,0,1,1.63.72,2.92,2.92,0,0,1,.6,1.92,1.84,1.84,0,0,1-.13.83C108.8,10.79,108.61,10.86,108.31,10.86Zm8.33-3.58a1.6,1.6,0,0,1,.65.13,1.32,1.32,0,0,1,.45.33,1.41,1.41,0,0,1,.25.45,1.73,1.73,0,0,1,.08.49v2.18h-1.49a2,2,0,0,1-.82-.27,1.56,1.56,0,0,1-.56-.53,1.79,1.79,0,0,1-.24-1,1.78,1.78,0,0,1,.15-.74,1.87,1.87,0,0,1,.37-.57,1.47,1.47,0,0,1,.53-.36A1.77,1.77,0,0,1,116.64,7.28Z"
         id="path36197" />
      <path
         class="cls-1"
         d="M39.43,27.55a4.22,4.22,0,0,0,2.18-4c0-2.68-1.57-4.48-3.91-4.48S33.61,21,33.61,23.65s1.48,4.3,3.83,4.43a2,2,0,0,1,.5.12c1.09.35,2.24.71,3.23,1l.13,0L41.73,28l-.15,0C41,27.9,40.24,27.74,39.43,27.55Zm-1.79-7.31c1.76,0,2.55,1.68,2.55,3.34s-.81,3.34-2.59,3.34-2.55-1.66-2.55-3.31S35.85,20.24,37.64,20.24Z"
         id="path36199" />
      <path
         class="cls-1"
         d="M46.63,19.22h-1.5l-2.91,8.54-.06.18h1.43l.86-2.66h2.8l.88,2.57,0,.09h1.45l-2.94-8.63Zm-.46,2.69.77,2.25H44.77l.77-2.27c.11-.36.22-.72.3-1.09C45.94,21.16,46,21.52,46.17,21.91Z"
         id="path36201" />
      <polygon
         class="cls-1"
         points="55.39 19.22 48.86 19.22 48.86 20.42 51.44 20.42 51.44 27.94 52.81 27.94 52.81 20.42 55.39 20.42 55.39 19.22"
         id="polygon36203" />
      <path
         class="cls-1"
         d="M59.17,19.22h-1.5l-2.91,8.54-.07.18h1.44L57,25.28h2.8l.88,2.57,0,.09h1.46L59.2,19.31Zm-.46,2.69.76,2.25H57.3l.77-2.27c.12-.36.22-.73.31-1.08C58.47,21.16,58.58,21.52,58.71,21.91Z"
         id="path36205" />
      <path
         class="cls-1"
         d="M68.45,25.46a2.45,2.45,0,0,0-1-1.69,2.33,2.33,0,0,0,1.41-2.18,2.3,2.3,0,0,0-.71-1.71,3.58,3.58,0,0,0-2.53-.72,11,11,0,0,0-2.14.18l-.11,0v8.58h1.37V24.28h.9c.91,0,1.32.44,1.56,1.54a10.56,10.56,0,0,0,.58,2.06l0,.06H69.2l-.11-.2A14.75,14.75,0,0,1,68.45,25.46Zm-1-3.75c0,.9-.7,1.47-1.77,1.47h-1V20.34a5.13,5.13,0,0,1,1-.07C66.84,20.28,67.45,20.77,67.45,21.71Z"
         id="path36207" />
      <path
         class="cls-1"
         d="M76.85,20.27a4,4,0,0,1,1.65.33l.14.07L79,19.53l-.1-.05a4.66,4.66,0,0,0-2.07-.39,4.31,4.31,0,0,0-4.54,4.57,4.08,4.08,0,0,0,4.3,4.42,5.81,5.81,0,0,0,2.3-.41l.1-.05-.3-1.15-.14.08a4.3,4.3,0,0,1-1.73.33,2.93,2.93,0,0,1-3.11-3.26A3,3,0,0,1,76.85,20.27Z"
         id="path36209" />
      <polygon
         class="cls-1"
         points="85.49 22.77 81.67 22.77 81.67 19.22 80.3 19.22 80.3 27.94 81.67 27.94 81.67 23.98 85.49 23.98 85.49 27.94 86.85 27.94 86.85 19.22 85.49 19.22 85.49 22.77"
         id="polygon36211" />
      <path
         class="cls-1"
         d="M92.54,19.22H91l-2.91,8.54-.07.18h1.43l.87-2.66h2.8L94,27.85l0,.09h1.46l-3-8.63Zm-.47,2.69.77,2.25H90.67l.77-2.27c.12-.36.22-.73.31-1.08C91.84,21.16,91.94,21.52,92.07,21.91Z"
         id="path36213" />
      <path
         class="cls-1"
         d="M101.83,25.46a2.46,2.46,0,0,0-1.07-1.69,2.33,2.33,0,0,0,1.42-2.18,2.27,2.27,0,0,0-.72-1.71,3.55,3.55,0,0,0-2.53-.72,10.92,10.92,0,0,0-2.13.18l-.11,0v8.58h1.37V24.28H99c.92,0,1.33.44,1.57,1.54a9.86,9.86,0,0,0,.58,2.06l0,.06h1.43l-.11-.2A13,13,0,0,1,101.83,25.46Zm-1-3.75c0,.9-.7,1.47-1.77,1.47h-1V20.34a5,5,0,0,1,.94-.07C100.21,20.28,100.82,20.77,100.82,21.71Z"
         id="path36215" />
      <rect
         class="cls-1"
         x="103.71"
         y="19.22"
         width="1.37"
         height="8.72"
         id="rect36217" />
      <polygon
         class="cls-1"
         points="106.02 20.42 108.59 20.42 108.59 27.94 109.96 27.94 109.96 20.42 112.54 20.42 112.54 19.22 106.02 19.22 106.02 20.42"
         id="polygon36219" />
      <path
         class="cls-1"
         d="M118.46,19.22l-1.26,2.41L117,22c-.2.38-.38.74-.54,1.09-.24-.51-.47-1-.73-1.5l-1.19-2.34,0-.07h-1.55l2.77,5.05v3.67h1.37V24.25l2.92-5Z"
         id="path36221" />
      <path
         class="cls-1"
         d="M115.54,4.6a.82.82,0,0,0,.81-.81.76.76,0,0,0-.24-.57.8.8,0,0,0-1.14,0,.76.76,0,0,0-.24.57.82.82,0,0,0,.81.81Z"
         id="path36223" />
      <path
         class="cls-1"
         d="M117.84,4.6a.76.76,0,0,0,.56-.24.74.74,0,0,0,.24-.57.73.73,0,0,0-.24-.57.8.8,0,0,0-1.14,0,.76.76,0,0,0-.24.57.82.82,0,0,0,.82.81Z"
         id="path36225" />
      <path
         class="cls-1"
         d="M48.5,14a.81.81,0,0,0-.23.57.8.8,0,0,0,.81.81.78.78,0,0,0,.57-.24.76.76,0,0,0,.24-.57.78.78,0,0,0-.24-.57A.81.81,0,0,0,48.5,14Z"
         id="path36227" />
      <path
         class="cls-1"
         d="M50.8,14a.78.78,0,0,0-.24.57.76.76,0,0,0,.24.57.8.8,0,0,0,1.14,0,.76.76,0,0,0,.24-.57.78.78,0,0,0-.24-.57A.8.8,0,0,0,50.8,14Z"
         id="path36229" />
      <path
         class="cls-1"
         d="M61.47,15.1a.76.76,0,0,0,.24-.57.78.78,0,0,0-.24-.57.8.8,0,0,0-1.14,0,.77.77,0,0,0-.23.57.75.75,0,0,0,.23.57.78.78,0,0,0,.57.24A.75.75,0,0,0,61.47,15.1Z"
         id="path36231" />
      <path
         class="cls-1"
         d="M64,14.53a.78.78,0,0,0-.24-.57.81.81,0,0,0-1.15,0,.77.77,0,0,0-.23.57.75.75,0,0,0,.23.57.8.8,0,0,0,.58.24.78.78,0,0,0,.57-.24A.76.76,0,0,0,64,14.53Z"
         id="path36233" />
    </g>
  </g>
</svg>
