<?xml version="1.0" encoding="UTF-8" standalone="no"?>
<svg
   xmlns:dc="http://purl.org/dc/elements/1.1/"
   xmlns:cc="http://creativecommons.org/ns#"
   xmlns:rdf="http://www.w3.org/1999/02/22-rdf-syntax-ns#"
   xmlns:svg="http://www.w3.org/2000/svg"
   xmlns="http://www.w3.org/2000/svg"
   xmlns:sodipodi="http://sodipodi.sourceforge.net/DTD/sodipodi-0.dtd"
   xmlns:inkscape="http://www.inkscape.org/namespaces/inkscape"
   viewBox="0 0 76.56 55.43"
   version="1.1"
   id="svg35068"
   sodipodi:docname="Asset 11.svg"
   inkscape:version="0.92.4 (5da689c313, 2019-01-14)">
  <metadata
     id="metadata35072">
    <rdf:RDF>
      <cc:Work
         rdf:about="">
        <dc:format>image/svg+xml</dc:format>
        <dc:type
           rdf:resource="http://purl.org/dc/dcmitype/StillImage" />
        <dc:title>Asset 11</dc:title>
      </cc:Work>
    </rdf:RDF>
  </metadata>
  <sodipodi:namedview
     pagecolor="#ffffff"
     bordercolor="#666666"
     borderopacity="1"
     objecttolerance="10"
     gridtolerance="10"
     guidetolerance="10"
     inkscape:pageopacity="0"
     inkscape:pageshadow="2"
     inkscape:window-width="1920"
     inkscape:window-height="1001"
     id="namedview35070"
     showgrid="false"
     inkscape:zoom="5.1777016"
     inkscape:cx="38.279999"
     inkscape:cy="27.715"
     inkscape:window-x="-9"
     inkscape:window-y="-9"
     inkscape:window-maximized="1"
     inkscape:current-layer="svg35068" />
  <defs
     id="defs35044">
    <style
       id="style35012">.cls-1{fill:none;}.cls-2{fill:url(#linear-gradient);}.cls-3{fill:url(#linear-gradient-2);}.cls-4{fill:#323031;}</style>
    <linearGradient
       id="linear-gradient"
       x1="18.17"
       y1="14.33"
       x2="10.52"
       y2="9.52"
       gradientUnits="userSpaceOnUse">
      <stop
         offset="0"
         stop-color="#17601f"
         id="stop35014" />
      <stop
         offset="0.01"
         stop-color="#1b6320"
         id="stop35016" />
      <stop
         offset="0.16"
         stop-color="#418228"
         id="stop35018" />
      <stop
         offset="0.3"
         stop-color="#619c30"
         id="stop35020" />
      <stop
         offset="0.46"
         stop-color="#79b035"
         id="stop35022" />
      <stop
         offset="0.62"
         stop-color="#8abe39"
         id="stop35024" />
      <stop
         offset="0.79"
         stop-color="#95c63b"
         id="stop35026" />
      <stop
         offset="1"
         stop-color="#98c93c"
         id="stop35028" />
    </linearGradient>
    <linearGradient
       id="linear-gradient-2"
       x1="16.04"
       y1="54.95"
       x2="16.04"
       y2="25.84"
       gradientUnits="userSpaceOnUse">
      <stop
         offset="0"
         stop-color="#3e0800"
         id="stop35031" />
      <stop
         offset="0.08"
         stop-color="#511603"
         id="stop35033" />
      <stop
         offset="0.41"
         stop-color="#974b0f"
         id="stop35035" />
      <stop
         offset="0.68"
         stop-color="#cb7117"
         id="stop35037" />
      <stop
         offset="0.89"
         stop-color="#ea891c"
         id="stop35039" />
      <stop
         offset="1"
         stop-color="#f6921e"
         id="stop35041" />
    </linearGradient>
  </defs>
  <title
     id="title35046">Asset 11</title>
  <g
     id="Layer_2"
     data-name="Layer 2">
    <g
       id="Layer_1-2"
       data-name="Layer 1">
      <path
         class="cls-1"
         d="M13.63,34.1h0"
         id="path35048" />
      <path
         class="cls-2"
         d="M16.34,8.69c-1-1.75-2.78-2.85-3.81-3.85C8.75,1.19,9,.51,8.77.11c0,0,0-.1-.06-.1s0,0,0,0,0,.17.08.32A13.28,13.28,0,0,1,8.4,8.07c-.87,2.41-1.12,4.7.59,7.13,1.45,2,4.41,2.42,5.6,5.25C19.26,14.52,16.63,9.23,16.34,8.69Z"
         id="path35050" />
      <path
         class="cls-3"
         d="M22,24.32a10.23,10.23,0,0,0-3.45-.74c-.27,0-.2,1.35-.91,4.47,0,.13-.06.24-.08.36-1.46,6.43,5.19,9.05,5.89,14.45s-3.35,9.93-7.6,10-8.29-4.57-7.6-10c.48-3.76,4.66-7.72,5.39-8.75h0A22,22,0,0,0,17.8,23.28,36.4,36.4,0,0,0,18.16,16a28.53,28.53,0,0,0-.42-3.12,12.81,12.81,0,0,0-1.42-4.23l0,0c.29.54,3.21,5.83-1.47,11.76a22.2,22.2,0,0,1-5.64,4.37h0A15.41,15.41,0,0,0,0,39.27a16,16,0,1,0,32.09,0A16.24,16.24,0,0,0,22,24.32Z"
         id="path35052" />
      <path
         class="cls-4"
         d="M45.46,47.23a4,4,0,0,0-.83-.63c-.29-.17-.59-.32-.89-.46l-.87-.41a4.11,4.11,0,0,1-.72-.41,1.81,1.81,0,0,1-.45-.47,1.1,1.1,0,0,1-.15-.59,1.19,1.19,0,0,1,.08-.45,1,1,0,0,1,.23-.34,1.48,1.48,0,0,1,.43-.25,2.56,2.56,0,0,1,1.4,0,3.12,3.12,0,0,1,.6.24l.45.24c.36.21.56.2.74,0a.48.48,0,0,0,.17-.26,1.37,1.37,0,0,0,.05-.25,2.62,2.62,0,0,0,0-.29,2.18,2.18,0,0,0,0-.28.58.58,0,0,0,0-.21.59.59,0,0,0-.07-.2,1.49,1.49,0,0,0-.15-.19,1.83,1.83,0,0,0-.4-.26,3.75,3.75,0,0,0-.6-.24,4.91,4.91,0,0,0-.71-.18,4.8,4.8,0,0,0-2.11.13,3.57,3.57,0,0,0-1.11.59,2.76,2.76,0,0,0-.75,1,3.05,3.05,0,0,0-.27,1.3,2.93,2.93,0,0,0,.24,1.23,3,3,0,0,0,.59.88,3.63,3.63,0,0,0,.82.64,8.54,8.54,0,0,0,.89.48l.87.4a3.91,3.91,0,0,1,.7.41,1.83,1.83,0,0,1,.46.46,1.1,1.1,0,0,1,.15.59,1.48,1.48,0,0,1-.12.61,1.16,1.16,0,0,1-.33.43,1.54,1.54,0,0,1-.54.28,2.11,2.11,0,0,1-.73.11,3.1,3.1,0,0,1-1-.13,4,4,0,0,1-.73-.28,4.27,4.27,0,0,1-.5-.28c-.33-.22-.58-.23-.76-.12a.55.55,0,0,0-.22.25,1.76,1.76,0,0,0-.07.27,3,3,0,0,0,0,.34,1.68,1.68,0,0,0,.06.49.9.9,0,0,0,.21.37,1.94,1.94,0,0,0,.4.3,5.78,5.78,0,0,0,.64.28,6.78,6.78,0,0,0,.85.24,5.64,5.64,0,0,0,1,.09,4.86,4.86,0,0,0,1.5-.22,3.52,3.52,0,0,0,1.24-.66A3.07,3.07,0,0,0,46,50.77a3.34,3.34,0,0,0,.3-1.44,2.82,2.82,0,0,0-.84-2.1Z"
         id="path35054" />
      <path
         class="cls-4"
         d="M76.52,51.78l-.16-.44L75.42,49c-.11-.27-.22-.51-.33-.74a5.61,5.61,0,0,0-.37-.6,2.76,2.76,0,0,0-.44-.46l.32-.18a2.88,2.88,0,0,0,.72-.62,2.69,2.69,0,0,0,.46-.83,3.4,3.4,0,0,0,.16-1,3.2,3.2,0,0,0-.18-1.09,2.71,2.71,0,0,0-.53-.9,2.88,2.88,0,0,0-.88-.65,4.6,4.6,0,0,0-1.17-.36l-.49-.05-.68,0H69.79a.91.91,0,0,0-.54.19.83.83,0,0,0-.29.69V52a.55.55,0,0,0,.08.29.51.51,0,0,0,.27.2.9.9,0,0,0,.28.06,3.22,3.22,0,0,0,.76,0,.83.83,0,0,0,.27-.06.55.55,0,0,0,.26-.18A.55.55,0,0,0,71,52V47.92h.61a2,2,0,0,1,.7.11,1.47,1.47,0,0,1,.48.33,2,2,0,0,1,.38.53c.11.22.23.47.34.74l1,2.45a.9.9,0,0,0,.12.24.64.64,0,0,0,.25.21,1.41,1.41,0,0,0,.31.08l.38,0,.42,0a1.29,1.29,0,0,0,.31-.07.48.48,0,0,0,.27-.23.58.58,0,0,0,.06-.26A1,1,0,0,0,76.52,51.78ZM73.73,45.3a1,1,0,0,1-.31.44,1.45,1.45,0,0,1-.55.3,2.64,2.64,0,0,1-.85.12H71V43.27h.85l.64,0a3.27,3.27,0,0,1,.4.07,1.33,1.33,0,0,1,.74.48,1.56,1.56,0,0,1,.23.87A1.63,1.63,0,0,1,73.73,45.3Z"
         id="path35056" />
      <path
         class="cls-4"
         d="M70.62,51.37a.83.83,0,0,0-.1-.29.65.65,0,0,0-.19-.21.6.6,0,0,0-.29-.08H63.87V47.68h3.19a.52.52,0,0,0,.27-.07.55.55,0,0,0,.22-.21.77.77,0,0,0,.08-.27,1.42,1.42,0,0,0,0-.3,1.57,1.57,0,0,0,0-.32.71.71,0,0,0-.08-.28.65.65,0,0,0-.19-.21.51.51,0,0,0-.3-.09H63.87V43.28h3.77a.49.49,0,0,0,.28-.08.47.47,0,0,0,.21-.23,1,1,0,0,0,.08-.26,1.42,1.42,0,0,0,0-.31,1.55,1.55,0,0,0,0-.33,1.49,1.49,0,0,0-.07-.25.53.53,0,0,0-.5-.33H62.35a1.3,1.3,0,0,1,.35.81,1.35,1.35,0,0,1-.85,1.33V51.7a.83.83,0,0,0,.29.69.94.94,0,0,0,.55.19H70a.54.54,0,0,0,.28-.08.74.74,0,0,0,.21-.22,1.4,1.4,0,0,0,.09-.29,2.66,2.66,0,0,0,0-.3A2.58,2.58,0,0,0,70.62,51.37Z"
         id="path35058" />
      <path
         class="cls-4"
         d="M55.2,52.63h.69a2.06,2.06,0,0,0,.39,0l.27-.06a.55.55,0,0,0,.28-.22.5.5,0,0,0,.07-.27V48h3.31a.52.52,0,0,0,.29-.09.7.7,0,0,0,.18-.2.81.81,0,0,0,.1-.3,2.36,2.36,0,0,0,0-.3,2.77,2.77,0,0,0,0-.33.67.67,0,0,0-.31-.5.62.62,0,0,0-.26-.06H56.9V43.3h4.84a1,1,0,0,0,0-1.81H55.72a.94.94,0,0,0-.55.19.83.83,0,0,0-.29.69v9.06h0L51.45,42a.76.76,0,0,0-.16-.26.69.69,0,0,0-.3-.18,2.27,2.27,0,0,0-.34,0,6.46,6.46,0,0,0-.88,0,1.39,1.39,0,0,0-.33.06.61.61,0,0,0-.29.17,1,1,0,0,0-.15.25l-3.5,9.71a1.36,1.36,0,0,0-.09.38.53.53,0,0,0,.16.42.66.66,0,0,0,.38.15,4.61,4.61,0,0,0,.83,0,1.36,1.36,0,0,0,.32-.08.71.71,0,0,0,.23-.19.7.7,0,0,0,.11-.21l.79-2.3h3.89L53,52.21a.78.78,0,0,0,.11.18.51.51,0,0,0,.26.18,1.13,1.13,0,0,0,.3.06m-4.85-4.54,1.36-3.94,1.39,3.94Z"
         id="path35060" />
      <path
         class="cls-4"
         d="M76.2,30.14a4.8,4.8,0,0,0-1-1.51,4.72,4.72,0,0,0-1.5-1,4.63,4.63,0,0,0-1.78-.35H69.39a5.66,5.66,0,0,0-2.42.54,6.61,6.61,0,0,0-1,.62,5.66,5.66,0,0,0-.7.61v-.43a1,1,0,0,0-.28-.7,1,1,0,0,0-1.39,0,1,1,0,0,0-.29.7v7.46H60.34A.88.88,0,0,1,60,36a.92.92,0,0,1-.28-.19,1.07,1.07,0,0,1-.19-.28.88.88,0,0,1-.06-.33V25.67a.93.93,0,0,0-.29-.69,1,1,0,0,0-1.39,0,.93.93,0,0,0-.29.69v9.54a2.79,2.79,0,0,0,.23,1.11,3,3,0,0,0,.6.88,2.91,2.91,0,0,0,.89.6,2.79,2.79,0,0,0,1.11.23H71.89a4.63,4.63,0,0,0,1.78-.35,4.43,4.43,0,0,0,1.51-1,4.53,4.53,0,0,0,1.37-3.29V31.92A4.67,4.67,0,0,0,76.2,30.14Zm-1.62,3.23a2.58,2.58,0,0,1-.21,1,2.71,2.71,0,0,1-.58.87,2.68,2.68,0,0,1-1.9.79H65.25V34a5.15,5.15,0,0,1,.34-1.85,4.85,4.85,0,0,1,.9-1.51,4.27,4.27,0,0,1,1.32-1,3.55,3.55,0,0,1,1.58-.36h2.5a2.54,2.54,0,0,1,1,.21,2.72,2.72,0,0,1,.86.58,2.66,2.66,0,0,1,.58.86,2.61,2.61,0,0,1,.21,1Z"
         id="path35062" />
      <path
         class="cls-4"
         d="M55.36,28.83a5.39,5.39,0,0,0-1.74-1.17,5.58,5.58,0,0,0-.88-.27,1.7,1.7,0,0,0,.29-.46,1.59,1.59,0,0,0,.12-.62,1.68,1.68,0,0,0-.12-.63,1.75,1.75,0,0,0-.34-.51,1.92,1.92,0,0,0-.5-.34,1.67,1.67,0,0,0-1.28,0,1.87,1.87,0,0,0-.49.34,1.78,1.78,0,0,0-.35.51,1.68,1.68,0,0,0-.12.63,1.59,1.59,0,0,0,.12.62,1.8,1.8,0,0,0,.29.46,7.25,7.25,0,0,0-.87.27,5.38,5.38,0,0,0-1.75,1.17,5.37,5.37,0,0,0-1.57,3.81,5.37,5.37,0,0,0,.4,2.07,5.54,5.54,0,0,0,.82,1.36H43V28.86a1,1,0,0,0-.28-.69,1,1,0,0,0-1.39,0,.93.93,0,0,0-.29.69v9.29a.79.79,0,0,1-.06.32.9.9,0,0,1-.47.47c-.33.14-.75.08-1,.35a1,1,0,0,0,0,1.39.94.94,0,0,0,.69.29,2.79,2.79,0,0,0,1.11-.23,2.81,2.81,0,0,0,1.49-1.49,2.7,2.7,0,0,0,.22-1.1V38h8.61a5.2,5.2,0,0,0,2-.39,5.3,5.3,0,0,0,1.78-1.19,5.13,5.13,0,0,0,1.17-1.74,5.41,5.41,0,0,0,0-4.13A5.38,5.38,0,0,0,55.36,28.83Zm-3.8-3.47a.94.94,0,1,1-.94.94A.94.94,0,0,1,51.56,25.36ZM54.71,34a3.49,3.49,0,0,1-.74,1.1,3.43,3.43,0,0,1-3.75.73,3.54,3.54,0,0,1-1.09-.73A3.64,3.64,0,0,1,48.4,34a3.29,3.29,0,0,1-.27-1.33,3.25,3.25,0,0,1,.27-1.32,3.77,3.77,0,0,1,.73-1.1,3.72,3.72,0,0,1,1.09-.73,3.41,3.41,0,0,1,2.66,0,3.51,3.51,0,0,1,1.83,1.83A3.25,3.25,0,0,1,55,32.64,3.29,3.29,0,0,1,54.71,34Z"
         id="path35064" />
    </g>
  </g>
</svg>
