<?xml version="1.0" encoding="UTF-8" standalone="no"?>
<svg
   xmlns:dc="http://purl.org/dc/elements/1.1/"
   xmlns:cc="http://creativecommons.org/ns#"
   xmlns:rdf="http://www.w3.org/1999/02/22-rdf-syntax-ns#"
   xmlns:svg="http://www.w3.org/2000/svg"
   xmlns="http://www.w3.org/2000/svg"
   xmlns:sodipodi="http://sodipodi.sourceforge.net/DTD/sodipodi-0.dtd"
   xmlns:inkscape="http://www.inkscape.org/namespaces/inkscape"
   viewBox="0 0 104.54 32.86"
   version="1.1"
   id="svg30"
   sodipodi:docname="Asset 15.svg"
   inkscape:version="0.92.4 (5da689c313, 2019-01-14)">
  <metadata
     id="metadata34">
    <rdf:RDF>
      <cc:Work
         rdf:about="">
        <dc:format>image/svg+xml</dc:format>
        <dc:type
           rdf:resource="http://purl.org/dc/dcmitype/StillImage" />
        <dc:title>Asset 15</dc:title>
      </cc:Work>
    </rdf:RDF>
  </metadata>
  <sodipodi:namedview
     pagecolor="#ffffff"
     bordercolor="#666666"
     borderopacity="1"
     objecttolerance="10"
     gridtolerance="10"
     guidetolerance="10"
     inkscape:pageopacity="0"
     inkscape:pageshadow="2"
     inkscape:window-width="1920"
     inkscape:window-height="1001"
     id="namedview32"
     showgrid="false"
     inkscape:zoom="3.2427779"
     inkscape:cx="52.27"
     inkscape:cy="16.43"
     inkscape:window-x="-9"
     inkscape:window-y="-9"
     inkscape:window-maximized="1"
     inkscape:current-layer="svg30" />
  <defs
     id="defs4">
    <style
       id="style2">.cls-1{fill:#ec1a3b;}.cls-2{fill:#f7971d;}.cls-3{fill:#034ea1;}.cls-4{fill:#4394d0;}</style>
  </defs>
  <title
     id="title6">Asset 15</title>
  <g
     id="Layer_2"
     data-name="Layer 2">
    <g
       id="Layer_1-2"
       data-name="Layer 1">
      <path
         class="cls-1"
         d="M58.6,15.1c-4.29,0-6.76,1.85-6.76,5.06s2.47,5,6.76,5,6.75-1.84,6.75-5S62.9,15.1,58.6,15.1m0,7.76q-3.52,0-3.53-2.7t3.53-2.72c2.35,0,3.55.91,3.55,2.72s-1.2,2.7-3.55,2.7"
         id="path8" />
      <path
         class="cls-1"
         d="M66.24,15.34V17.5h4.07v6.68c0,.64,1,.87,1.79.87s1.8-.22,1.8-.87V17.5H78V15.34H66.24"
         id="path10" />
      <path
         class="cls-1"
         d="M99.62,22.72a3.36,3.36,0,0,1-2.05-.47A1.89,1.89,0,0,1,97,20.76V16c0-.63-.93-.83-1.72-.83s-1.73.2-1.73.82V20.6a3.88,3.88,0,0,0,1.68,3.63c1.38.81,3.88.78,6.28.74h3V22.72H99.62"
         id="path12" />
      <path
         class="cls-1"
         d="M44,22c0,1.7,1.43,2.86,3.86,3.06V14.8h5.45V12.43H39.12V14.8H44V22"
         id="path14" />
      <path
         class="cls-1"
         d="M92.18,25l-.08-.39c-.8-3.95-5.29-8.46-6.22-9.13a1.92,1.92,0,0,0-1-.27,2,2,0,0,0-1,.27c-.92.67-5.42,5.18-6.2,9.13l-.1.39h3.18l.06-.28a9.73,9.73,0,0,1,.61-1.79h7a9,9,0,0,1,.6,1.79L89,25h3.18m-9.71-4.1A17,17,0,0,1,84.84,18a18,18,0,0,1,2.37,2.89Z"
         id="path16" />
      <path
         class="cls-2"
         d="M30.05,18.31c0-.07-.05-.13-.07-.2-2.35,2.68-8.12,4.42-13.31,4A32.59,32.59,0,0,1,5.1,18.58a25.94,25.94,0,0,0,10.54,6.28c4.76,1.41,9.82,1.31,12.68-.18,2.09-1.41,2.57-3.93,1.73-6.37"
         id="path18" />
      <path
         class="cls-3"
         d="M23.52,1.45c9.35,5.52,3.79,22.9-3.66,28.48-6.93,5.2-14.29,2.8-15.89-2a5.75,5.75,0,0,0,6.62,2C17.43,27.21,21,14.82,21.41,10.52c.3-3.7-.18-6.19-1.47-7.76-1.47-1.55-3.73-2.31-7-1.27,2.28-1.87,7.14-2.09,10.61,0"
         id="path20" />
      <path
         class="cls-1"
         d="M28.75,24.44l.12-.07v0a3.72,3.72,0,0,0,.56-.42l.25-.24c3.64-3.7,4.41-14-4.56-18.83C21.94,3.13,14.52.7,7.12,4.44a13.9,13.9,0,0,0-6.33,7.3C1.79,10.08,3.53,9,7,8.47A29.35,29.35,0,0,1,19.67,10.2a24.87,24.87,0,0,1,7.25,4A10.19,10.19,0,0,1,30,18.11c0,.07.05.13.07.2.84,2.44.36,5-1.73,6.37h0l.3-.16,0,0,.09,0"
         id="path22" />
      <path
         class="cls-2"
         d="M1.94,17.64a9,9,0,0,0,.82,1c1.8-4.22,11.64-7,14.55-6.93-6.53-2.1-12.92-1.1-15.5,1.13-.93,1-1.22,2.6.13,4.77"
         id="path24" />
      <path
         class="cls-4"
         d="M21.15,27.23c-5.25-.29-12.88-2.31-18.29-8.44a1.27,1.27,0,0,1-.1-.12,9,9,0,0,1-.82-1C.59,15.47.88,13.91,1.81,12.87h0a5.08,5.08,0,0,0-.61.65C-.18,15.31-.35,18.21.6,21.29,2.66,28,11.67,32,19,30.9a16.67,16.67,0,0,0,8.82-4.41,18.74,18.74,0,0,1-6.66.74"
         id="path26" />
    </g>
  </g>
</svg>
