<?xml version="1.0" encoding="UTF-8" standalone="no"?>
<svg
   xmlns:dc="http://purl.org/dc/elements/1.1/"
   xmlns:cc="http://creativecommons.org/ns#"
   xmlns:rdf="http://www.w3.org/1999/02/22-rdf-syntax-ns#"
   xmlns:svg="http://www.w3.org/2000/svg"
   xmlns="http://www.w3.org/2000/svg"
   xmlns:sodipodi="http://sodipodi.sourceforge.net/DTD/sodipodi-0.dtd"
   xmlns:inkscape="http://www.inkscape.org/namespaces/inkscape"
   viewBox="0 0 120 20.48"
   version="1.1"
   id="svg32929"
   sodipodi:docname="Asset 4.svg"
   inkscape:version="0.92.4 (5da689c313, 2019-01-14)">
  <metadata
     id="metadata32933">
    <rdf:RDF>
      <cc:Work
         rdf:about="">
        <dc:format>image/svg+xml</dc:format>
        <dc:type
           rdf:resource="http://purl.org/dc/dcmitype/StillImage" />
        <dc:title>Asset 4</dc:title>
      </cc:Work>
    </rdf:RDF>
  </metadata>
  <sodipodi:namedview
     pagecolor="#ffffff"
     bordercolor="#666666"
     borderopacity="1"
     objecttolerance="10"
     gridtolerance="10"
     guidetolerance="10"
     inkscape:pageopacity="0"
     inkscape:pageshadow="2"
     inkscape:window-width="640"
     inkscape:window-height="480"
     id="namedview32931"
     showgrid="false"
     inkscape:zoom="4"
     inkscape:cx="60"
     inkscape:cy="10.24"
     inkscape:window-x="0"
     inkscape:window-y="0"
     inkscape:window-maximized="1"
     inkscape:current-layer="svg32929" />
  <defs
     id="defs32907">
    <style
       id="style32905">.cls-1{fill:#4c8cca;}</style>
  </defs>
  <title
     id="title32909">Asset 4</title>
  <g
     id="Layer_2"
     data-name="Layer 2">
    <g
       id="Layer_1-2"
       data-name="Layer 1">
      <path
         class="cls-1"
         d="M23.67,9.07h-.28c-.24-1.68-.66-1.6-1.1-2.79L22,6.33c-.41,2.88,1.06,2.82.87,5.49l.27.08c.5-.45,3.08-3.25,1.53-6.63l-.28.07c.19,2.4-.34,2-.73,3.73m-1.55,1.09C20.49,13,22.18,13,20.39,16l.19.2c.19-.07,4.71-1.42,4.71-6.12L25,10c-.41,1.52-1.89,2.29-2.62,3.67l-.25-.14c.57-1.81.07-2.14.26-3.33l-.28-.05m.2-6.38.25-.13c-.31-1.08-.68-2-2.73-3.15a2.71,2.71,0,0,1-.19.21c1.21,1.06.87,1.78,2.67,3.07M22.82,5c-.53-.74-1.31-1-2.05-2.17L20.53,3c.62,2.82,2.06,2.09,2.83,4.58l.28,0c.34-.62,1.17-4.48-1.25-5.86l-.24.17c1.07,1.35.77,2.15.94,3.06ZM19.29,17.31l-.17-.22c1.2-1.31,1.12-1.95,1.74-3.05l-.23-.16c-2.31,1.4-1.92,3.54-4.79,3.39,0,.12.1.27.1.27,2,1.13,5.3,2.05,8-2.54l-.24-.14C22,16.67,21,16.23,19.29,17.31m-6.65.43c-3-1-4.68,2.33-8.19.87l-.18.22c3.56,3.3,5.39-1.27,7.81-.85a8.18,8.18,0,0,0-2.24,1.78l.69.72a5.74,5.74,0,0,1,2.11-2.31,5.68,5.68,0,0,1,2.12,2.31l.69-.72A8.18,8.18,0,0,0,13.21,18c2.42-.42,4.25,4.15,7.81.85l-.18-.22c-3.51,1.46-5.24-1.85-8.2-.87m-3.29-.2s.06-.15.1-.27c-2.87.15-2.48-2-4.79-3.39L4.43,14c.62,1.1.54,1.74,1.74,3.05L6,17.31c-1.67-1.08-2.7-.64-4.39-2.45L1.36,15c2.69,4.59,6,3.67,8,2.54M2.14,11.9l.27-.08c-.19-2.67,1.28-2.61.87-5.49L3,6.27c-.44,1.19-.86,1.11-1.1,2.79H1.62C1.22,7.35.7,7.74.88,5.34L.61,5.27c-1.55,3.38,1,6.18,1.53,6.63M3,3.78c1.8-1.29,1.46-2,2.66-3.07,0,0-.12-.13-.18-.21C3.4,1.6,3,2.57,2.72,3.65L3,3.78M4.7,16.16l.2-.2c-1.79-3-.1-3-1.74-5.8l-.27.05c.19,1.19-.31,1.52.25,3.33l-.24.14C2.16,12.3.69,11.53.28,10L0,10c0,4.7,4.52,6.05,4.7,6.12M1.93,7.56C2.69,5.07,4.14,5.8,4.76,3l-.24-.16C3.78,4,3,4.25,2.47,5L2.2,4.9c.16-.91-.14-1.71.93-3.06L2.9,1.67C.47,3.05,1.31,6.91,1.65,7.53l.28,0"
         id="path32911" />
      <path
         class="cls-1"
         d="M12.64,0a8.49,8.49,0,1,0,8.5,8.49A8.49,8.49,0,0,0,12.64,0m7.92,8.21h-1.7a6.14,6.14,0,0,0-1.62-3.92l1.2-1.2a7.89,7.89,0,0,1,2.12,5.12M16.84,3.89a6.22,6.22,0,0,0-3.91-1.62V.57A7.88,7.88,0,0,1,18,2.69Zm-3.06,4.6a1.14,1.14,0,1,1-1.14-1.13,1.14,1.14,0,0,1,1.14,1.13M12.36,6.82a1.61,1.61,0,0,0-.7.29L10.45,5.9a3.44,3.44,0,0,1,1.91-.79Zm-.7,3.06a1.89,1.89,0,0,0,.7.29v1.71a3.44,3.44,0,0,1-1.91-.79Zm1.27.29a1.89,1.89,0,0,0,.7-.29l1.21,1.21a3.44,3.44,0,0,1-1.91.79Zm.7-3.06a1.61,1.61,0,0,0-.7-.29V5.11a3.44,3.44,0,0,1,1.91.79ZM12.36,4.54a4,4,0,0,0-2.31,1L8.85,4.29a5.59,5.59,0,0,1,3.51-1.45Zm-1.1,3a1.68,1.68,0,0,0-.29.7H9.26a3.38,3.38,0,0,1,.79-1.91ZM11,8.78a1.8,1.8,0,0,0,.29.7l-1.21,1.2a3.38,3.38,0,0,1-.79-1.9Zm-.92,2.71a4,4,0,0,0,2.31.95v1.71a5.65,5.65,0,0,1-3.51-1.46Zm2.88.95a4,4,0,0,0,2.31-.95l1.2,1.2a5.65,5.65,0,0,1-3.51,1.46Zm1.1-3a2,2,0,0,0,.29-.7H16a3.38,3.38,0,0,1-.79,1.9Zm.29-1.27a1.82,1.82,0,0,0-.29-.7L15.24,6.3A3.38,3.38,0,0,1,16,8.21Zm.92-2.71a4,4,0,0,0-2.31-1V2.84a5.59,5.59,0,0,1,3.51,1.45ZM12.36,2.27A6.22,6.22,0,0,0,8.45,3.89L7.24,2.69A7.93,7.93,0,0,1,12.36.57ZM9.65,5.9a4,4,0,0,0-1,2.31H7A5.68,5.68,0,0,1,8.45,4.69Zm-1,2.88a3.9,3.9,0,0,0,1,2.3l-1.2,1.21A5.65,5.65,0,0,1,7,8.78Zm-.26,4.31a6.22,6.22,0,0,0,3.92,1.62v1.7a7.93,7.93,0,0,1-5.12-2.12Zm4.49,1.62a6.17,6.17,0,0,0,3.91-1.62l1.2,1.2a7.88,7.88,0,0,1-5.11,2.12Zm2.71-3.63a3.9,3.9,0,0,0,.95-2.3H18.3a5.65,5.65,0,0,1-1.46,3.51Zm.95-2.87a4,4,0,0,0-.95-2.31l1.2-1.21A5.68,5.68,0,0,1,18.3,8.21ZM6.84,3.09,8,4.29A6.25,6.25,0,0,0,6.42,8.21H4.73A7.88,7.88,0,0,1,6.84,3.09M4.73,8.78H6.42A6.22,6.22,0,0,0,8,12.69l-1.2,1.2A7.87,7.87,0,0,1,4.73,8.78m13.71,5.11-1.2-1.2a6.11,6.11,0,0,0,1.62-3.91h1.7a7.88,7.88,0,0,1-2.12,5.11"
         id="path32913" />
      <path
         class="cls-1"
         d="M13.7,1.68l.47-.16.27.09.25-.2,0-.07-.47-.23h-.13l-.56.29-.16-.06-.07.1.3.25Zm3.53.84L17,2.19l-.32,0v.19l.5.21Zm1.3,2.13-.3-.19,0-.32L17,2.77l-.9-.22L16,2.93l.41.3-.1.72.37.07.24.26.07.5.38.15.36.58.52-.22.38.66L19,5.76l0-.23Zm-.92,4.71v.18l.27.23L18,9.64V9.51l-.22-.16Zm.31-1.64L18,7.63V7.29l-.19.1,0,.23-.19.4,0,.4.44.27,0-.79ZM12.8,8.85l-.06,0-.47,0-.11.3-.39.41.29.21.59-.39Zm4.57,3.25-.09,0,.06.18-.12.18,0,.48.13.16h.37l.12-.24-.11-.53Zm-1.26-1.76.18-.45.09.3.16,0,.05-.23.17.11.77-.22-.2-.47-.26-.18-.26-.41L17.16,8l.23-.08.19-.3.21-1-.09-.37-.25-.07.09-.28-.2-.06.09-.18-.06-.1-.22.12-.29-.49-.17,0,0-.17L15.46,3.84l-.05.08.11.41L16.8,5.94v.49l.51.33.15.7-.17.33-.2,0,.16-.51L16.86,7l-.25.19-.09-.1.08-.2-.3-.36-.79-.11-.3.47-.39-.57-.28,0,.19.09-.12.28-.22,0L14,7.18h-.33l-.25-.13.08-.17.44-.26L14,6.28l-.1-.13-.43.37-1-.3-.31.18L12,6.82l-1.44-.37-1.24.64-.08.16L9,7.2l-.18.67-.05.49L8.27,9l0,.67-.62-.51-.19,0L7,9.6,7,10,7,10.3l-.17.17-.73-.33-.18,0,0,.16-.12,0-.1-.11H5.51l-.13.5.19.56.49.34.12-.22.29.43.63.32.21.44.71.5.4-.1.45.19L9.41,13l.41.06.11-.16-.87-1,.2-.26L9,11.12l.07-.6-.43-1-.06-.46.37-.19.4-1.12h.21l.06,1.31-.46,0L9,9.59l.18.11.13-.42,1.2.22,0,.12.47.47.8-.78L12,8.82l0-.16-.18,0,0,.16-1.13.31.4-.84.35,0,.31.2.14,0,0-.51.31-.12V7.59l.47-.08-.13-.4.2-.09.34.17-.3.14.18.27L13,7.49l.32.39h.23l0,.18.17.11-.2.25.25.29,0,.31h.16l-.27.48h-.34l-.59,1,.12.11-.1.08,0,.15.15.2-.34,0,0,.51.74-.48.47.22.23-.06v-.12l.13-.12.14.17.31-.25.17.25-.22.29-.53.21v.19l-.47-.09-.18-.18H13l-.16.11-.41-.09-.69.47-.25.46.21.49,1.5.79.47-.07-.11.41.24.38,1.1.95h.25l.65-.47.7-1.35-.2-.17.37-.5-.79-.18,0-.27.46-.27.07-.51-.08-.43H16.2l-.09.37-.08.11-.65.14-.78-.45.12-.21,1.2.31.34-.94L16,10.5l-.17,0-.52.21.06-.12Zm-1.67.28-.2.15-.25,0v-.25l.15-.09.32.13Zm.49-.24-.24-.17L14.58,10l.24-.15L15,10l.08.22Z"
         id="path32915" />
      <path
         class="cls-1"
         d="M45.87,2.83v12c0,2.44-1.77,4.55-7.82,4.55s-7.83-2.11-7.83-4.55v-12h4.45V14.52c0,1.3,1,2.05,3.38,2.05s3.37-.75,3.37-2.05V2.83Z"
         id="path32917" />
      <polygon
         class="cls-1"
         points="53.95 7.95 53.95 18.9 49.73 18.9 49.73 2.83 55.27 2.83 62.07 14.29 62.07 2.83 66.29 2.83 66.29 18.9 60.72 18.9 53.95 7.95"
         id="polygon32919" />
      <path
         class="cls-1"
         d="M89.85,2.83H97.6c4.6,0,6.21,1.49,6.21,4V9.18c0,2.48-1.61,4-6.21,4h-5V18.9H89.85ZM97.5,4.69H92.61V11.3H97.5c2.64,0,3.66-.56,3.66-2.41V7.09c0-1.76-1-2.4-3.66-2.4"
         id="path32921" />
      <path
         class="cls-1"
         d="M78.32,2.45c-5.53,0-7.76,1.56-7.76,4.24V15c0,2.68,2.23,4.25,7.76,4.25s7.76-1.57,7.76-4.25V6.69c0-2.68-2.22-4.24-7.76-4.24m5,12.53c0,2-1.61,2.45-5,2.45s-5-.48-5-2.45V6.76c0-2,1.61-2.46,5-2.46s5,.48,5,2.46Z"
         id="path32923" />
      <path
         class="cls-1"
         d="M113,19.22a21,21,0,0,1-6-.85l.45-1.69a23.46,23.46,0,0,0,5.61.68c3.44,0,4.15-.65,4.15-2.49,0-2.17,0-2.44-4.44-3.18-5.18-.87-5.79-1.69-5.79-5,0-2.8,1.54-4.16,6.85-4.16a28,28,0,0,1,5.42.54L119,4.83a29.9,29.9,0,0,0-5.12-.46c-3.51,0-4.15.51-4.15,2.37,0,2.22,0,2.39,4.24,3.18,5.7,1.07,6,1.76,6,4.9,0,2.8-1.09,4.4-7,4.4"
         id="path32925" />
    </g>
  </g>
</svg>
